# xmcd
#
# Track frame offsets:
#	150
#	14068
#	29336
#	45259
#	61110
#	78664
#	95799
#	110707
#	138796
#	148360
#	162503
#	176020
#	194883
#	216917
#	238283
#
# Disc length: 3473 seconds
#
# Revision: 0
# Processed by: cddbd v1.5.1PL0 Copyright (c) Steve Scherf et al.
# Submitted via: dBpowerAMP V4.0
#
DISCID=e90d8f0f
DTITLE=Allez Mama - Niet Te Koop
DYEAR=1900
DGENRE=
TTITLE0=Beter Laat Dan Nooit
TTITLE1=Ik Ben Ik
TTITLE2=Nog Een Zo'n Dag
TTITLE3=Echt Wel, Echt Niet
TTITLE4=Onmisbaar Blauw
TTITLE5=Tout Le Soir
TTITLE6=Leg Daar Maar Neer
TTITLE7=Grand Bayo (live)
TTITLE8=Madam Taneaux
TTITLE9=C'est La Vie
TTITLE10=Je Liegt Dat Je Barst
TTITLE11=Nog Een Zo'n Dag (live)
TTITLE12=Cisco Kid (live)
TTITLE13=Weet je Nog Waar Je Was (live)
TTITLE14=Jij Slaapt Ik Rij
EXTD=promo-album
EXTT0=
EXTT1=
EXTT2=
EXTT3=
EXTT4=
EXTT5=
EXTT6=
EXTT7=
EXTT8=
EXTT9=
EXTT10=
EXTT11=
EXTT12=
EXTT13=
EXTT14=
PLAYORDER=
